<svg height="512pt" viewBox="0 0 512 512" width="512pt" xmlns="http://www.w3.org/2000/svg"><path d="m180 0c-99.253906 0-180 80.746094-180 180v107c0 57.898438 47.101562 105 105 105h152l75-392zm0 0" fill="#af3526"/><path d="m332 0-60 196 60 196h75c57.898438 0 105-47.101562 105-105v-107c0-99.253906-80.746094-180-180-180zm0 0" fill="#d7442d"/><path d="m152 180v107c0 57.898438 47.101562 105 105 105h75v-392c-99.253906 0-180 80.746094-180 180zm0 0" fill="#ff5233"/><path d="m483.769531 437h-287.769531l60 75h190.269531zm0 0" fill="#ffbe46"/><path d="m28.230469 437 37.5 75h190.269531v-75zm0 0" fill="#ffd567"/><path d="m512 422h-256l-20 15 20 15h256zm0 0" fill="#ffd567"/><path d="m0 422h256v30h-256zm0 0" fill="#ffe7ad"/><path d="m332 60-50 136 50 136h75c24.8125 0 45-20.1875 45-45v-107c0-66.167969-53.832031-120-120-120zm0 0" fill="#ffe7ad"/><path d="m212 180v107c0 24.8125 20.1875 45 45 45h75v-272c-66.167969 0-120 53.832031-120 120zm0 0" fill="#fff"/><path d="m332 90-40 106 40 106h75c8.269531 0 15-6.730469 15-15v-107c0-49.625-40.375-90-90-90zm0 0" fill="#ff6c84"/><path d="m242 180v107c0 8.269531 6.730469 15 15 15h75v-212c-49.625 0-90 40.375-90 90zm0 0" fill="#ff9592"/><path d="m347 152.9375v-77.9375h-15l-10 53.5 10 53.5c49.625 0 90 40.375 90 90h30c0-61.089844-45.886719-111.660156-105-119.0625zm0 0" fill="#ffe7ad"/><path d="m317 75v77.9375c-59.113281 7.402344-105 57.972656-105 119.0625h30c0-49.625 40.375-90 90-90v-107zm0 0" fill="#fff"/></svg>