<?xml version="1.0"?>
<svg xmlns="http://www.w3.org/2000/svg" viewBox="0 0 64 64" width="512" height="512"><g id="meat-food-steak"><path d="M48.95,3.82A9.985,9.985,0,0,1,55,13v1.19a9.992,9.992,0,0,1-7.57,9.7l-7.89,1.97A6,6,0,0,0,35,31.68V46A14.986,14.986,0,0,1,10.27,57.4,15.006,15.006,0,0,0,32,44V29.68a6,6,0,0,1,4.54-5.82l7.89-1.97A9.992,9.992,0,0,0,52,12.19V11A9.94,9.94,0,0,0,48.95,3.82Z" style="fill:#ab2300"/><rect x="14.464" y="40.757" width="7.071" height="8.485" transform="translate(-26.548 25.908) rotate(-45)" style="fill:#ff5023"/><rect x="14.361" y="18.8" width="7.778" height="9.899" transform="translate(-11.448 19.861) rotate(-45)" style="fill:#ff5023"/><path d="M18.5,50.5l5-5-6-6-5,5ZM19,30l5.5-5.5-7-7L12,23ZM52,11v1.19a9.992,9.992,0,0,1-7.57,9.7l-7.89,1.97A6,6,0,0,0,32,29.68V44A14.991,14.991,0,0,1,10.27,57.4,14.9,14.9,0,0,1,5,46V25.91A21.994,21.994,0,0,1,24.81,4.02L45,3a9.832,9.832,0,0,1,3.95.82A9.94,9.94,0,0,1,52,11Z" style="fill:#ff5023"/><path d="M45,2h-.051L24.711,3.023A22.93,22.93,0,0,0,4,25.91V46a16,16,0,0,0,32,0V31.685a4.994,4.994,0,0,1,3.787-4.851l7.881-1.971A10.983,10.983,0,0,0,56,14.192V13A11.013,11.013,0,0,0,45,2ZM6,46V25.91A20.924,20.924,0,0,1,24.861,5.018L45.024,4a8.934,8.934,0,0,1,3.346.662A8.88,8.88,0,0,1,51,11v1.19a8.98,8.98,0,0,1-6.813,8.73L36.3,22.891A6.99,6.99,0,0,0,31,29.68V44A14.024,14.024,0,0,1,17,58a13.7,13.7,0,0,1-6.165-1.442A13.959,13.959,0,0,1,6,46ZM54,14.192a8.989,8.989,0,0,1-6.816,8.732L39.3,24.9a6.987,6.987,0,0,0-5.3,6.79V46A13.994,13.994,0,0,1,18.55,59.924,16.024,16.024,0,0,0,33,44V29.68a5,5,0,0,1,3.782-4.85l7.89-1.97A10.975,10.975,0,0,0,53,12.19V11a11.035,11.035,0,0,0-.349-2.715A8.927,8.927,0,0,1,54,13Z" style="fill:#231f20"/><path d="M10.707,47.707,12.5,45.914,17.086,50.5l-1.793,1.793,1.414,1.414L18.5,51.914l2.793,2.793,1.414-1.414L19.914,50.5,23.5,46.914l1.793,1.793,1.414-1.414L24.914,45.5l1.793-1.793-1.414-1.414L23.5,44.086,18.914,39.5l1.793-1.793-1.414-1.414L17.5,38.086l-6.793-6.793L9.293,32.707,16.086,39.5,12.5,43.086,9.707,40.293,8.293,41.707,11.086,44.5,9.293,46.293ZM17.5,40.914,22.086,45.5,18.5,49.086,13.914,44.5Z" style="fill:#231f20"/><path d="M10.707,25.707,12,24.414,17.586,30l-1.293,1.293,1.414,1.414L19,31.414l8.293,8.293,1.414-1.414L20.414,30,24.5,25.914l2.793,2.793,1.414-1.414L25.914,24.5l1.793-1.793-1.414-1.414L24.5,23.086,18.914,17.5l1.793-1.793-1.414-1.414L17.5,16.086l-2.793-2.793-1.414,1.414L16.086,17.5,12,21.586l-1.293-1.293L9.293,21.707,10.586,23,9.293,24.293ZM17.5,18.914,23.086,24.5,19,28.586,13.414,23Z" style="fill:#231f20"/><polygon points="24.293 16.293 25.707 17.707 27 16.414 32.293 21.707 33.707 20.293 28.414 15 33 10.414 41.293 18.707 42.707 17.293 34.414 9 35.707 7.707 34.293 6.293 33 7.586 31.707 6.293 30.293 7.707 31.586 9 27 13.586 21.707 8.293 20.293 9.707 25.586 15 24.293 16.293" style="fill:#231f20"/></g></svg>
