<svg height="511pt" viewBox="0 0 511 511.99891" width="511pt" xmlns="http://www.w3.org/2000/svg"><path d="m512.113281 156.5c-1.449219-6.328125-6.8125-11.003906-13.28125-11.585938l-71.144531-6.367187 11.929688-47.460937c1.289062-5.117188-.210938-10.53125-3.9375-14.261719-3.730469-3.730469-9.148438-5.226563-14.265626-3.941407l-47.464843 11.929688-6.367188-71.148438c-.578125-6.46875-5.253906-11.828124-11.585937-13.28125-6.332032-1.457031-12.875 1.335938-16.214844 6.90625l-80.460938 134.128907c-4.261718 7.105469-1.957031 16.316406 5.144532 20.578125 6.027344 3.613281 13.5625 2.492187 18.3125-2.265625l69.984375 69.984375c-4.757813 4.753906-5.882813 12.285156-2.269531 18.3125 2.8125 4.691406 7.78125 7.289062 12.878906 7.289062 2.625 0 5.285156-.691406 7.699218-2.140625l134.140626-80.457031c5.570312-3.339844 8.355468-9.886719 6.902343-16.21875zm0 0" fill="#54e360"/><path d="m512.113281 156.5c-1.449219-6.328125-6.8125-11.003906-13.28125-11.585938l-71.144531-6.367187 11.929688-47.460937c1.289062-5.117188-.210938-10.53125-3.9375-14.261719l-117.90625 117.902343 34.988281 34.992188c-4.757813 4.75-5.882813 12.285156-2.269531 18.3125 2.8125 4.6875 7.78125 7.285156 12.878906 7.285156 2.625 0 5.285156-.691406 7.699218-2.140625l134.140626-80.457031c5.570312-3.339844 8.355468-9.886719 6.902343-16.21875zm0 0" fill="#1fbf66"/><path d="m338.613281 173.886719c-31.375-31.375-73.246093-48.652344-117.90625-48.652344-44.65625 0-86.53125 17.277344-117.90625 48.652344l-53.648437 53.648437c-31.375 31.375-48.652344 73.246094-48.652344 117.902344 0 44.660156 17.277344 86.53125 48.652344 117.90625s73.25 48.652344 117.90625 48.652344 86.527344-17.277344 117.902344-48.652344l53.648437-53.648438c31.375-31.375 48.652344-73.246093 48.652344-117.90625.003906-44.65625-17.273438-86.527343-48.648438-117.902343zm0 0" fill="#ffd400"/><path d="m49.15625 463.34375c31.375 31.375 73.246094 48.65625 117.902344 48.65625s86.527344-17.28125 117.902344-48.65625l53.652343-53.648438c31.371094-31.375 48.652344-73.246093 48.652344-117.902343 0-44.660157-17.277344-86.53125-48.652344-117.90625zm0 0" fill="#ff9f04"/><path d="m287.183594 303.617188v-48.304688h96.128906c-2.277344-10.328125-5.527344-20.363281-9.695312-30h-86.433594v-86.433594c-9.636719-4.167968-19.671875-7.417968-30-9.695312v96.132812h-48.300782v-99.671875c-10.21875.707031-20.25 2.328125-30 4.816407v94.855468h-63.300781c-8.285156 0-15 6.714844-15 15v63.300782h-94.855469c-2.488281 9.75-4.109374 19.78125-4.8125 30h99.667969v48.296874h-96.128906c2.273437 10.332032 5.527344 20.363282 9.695313 30h86.433593v86.4375c9.636719 4.167969 19.671875 7.417969 30.003907 9.695313v-96.132813h48.296874v99.671876c10.21875-.703126 20.25-2.324219 30-4.816407v-94.851562h63.300782c8.28125 0 15-6.714844 15-15v-63.300781h94.851562c2.492188-9.75 4.113282-19.78125 4.816406-30zm-108.300782 78.296874h-48.300781v-48.296874h48.300781zm0-78.296874h-48.300781v-48.304688h48.300781zm78.300782 78.296874h-48.300782v-48.296874h48.300782zm0-78.296874h-48.300782v-48.304688h48.300782zm0 0" fill="#ff9f00"/><path d="m287.183594 255.3125h96.128906c-2.277344-10.328125-5.527344-20.363281-9.695312-30h-86.433594l-30 30.003906v48.300782h-48.300782l-30 30v48.296874h-48.296874l-30.003907 30.003907v86.433593c9.636719 4.167969 19.671875 7.417969 30 9.695313v-96.132813h48.300781v99.671876c10.21875-.703126 20.25-2.324219 30-4.816407v-94.855469h63.300782c8.28125 0 15-6.714843 15-15v-63.296874h94.851562c2.492188-9.75 4.109375-19.78125 4.816406-30h-99.667968zm-30 126.601562h-48.300782v-48.296874h48.300782zm0 0" fill="#ff641a"/></svg>