<svg height="512pt" viewBox="-5 0 512 512.00006" width="512pt" xmlns="http://www.w3.org/2000/svg"><path d="m261.128906 505.175781c-137.164062-43.898437-118.714844-161.867187-70.25-224.917969 15.554688-20.238281 23.617188-45.433593 22.703125-70.941406-2.851562-79.472656 59.265625-146.207031 138.734375-149.054687 79.46875-2.851563 146.203125 59.261719 149.054688 138.734375 3.308594 92.324218-25.875 183.511718-82.175782 256.757812-38.023437 49.472656-101.875 67.40625-158.066406 49.421875zm0 0" fill="#dd6642"/><path d="m441.832031 87.457031c-25.082031-18.15625-56.175781-28.390625-89.515625-27.195312-79.46875 2.847656-141.585937 69.582031-138.734375 149.054687.917969 25.507813-7.148437 50.703125-22.703125 70.941406-48.464844 63.050782-66.914062 181.019532 70.25 224.917969 6.121094 1.957031 12.320313 3.488281 18.578125 4.601563 13.648438-29.195313 36.21875-63.722656 72.621094-103.160156 97.324219-105.445313 95.878906-253.695313 89.503906-319.160157zm0 0" fill="#cb5935"/><path d="m411.894531 70.808594c-18.328125-7.492188-38.503906-11.304688-59.578125-10.546875-7.410156.265625-14.671875 1.089843-21.746094 2.425781 1.808594 21.902344 8.539063 123.351562-16.703124 174.613281-28.398438 57.667969-69.023438 120.898438-30.316407 139.101563 53.40625 25.117187 147.582031-197.273438 128.34375-305.59375zm0 0" fill="#a34325"/><path d="m145.921875 460.089844c-144.019531 0-162.402344-117.980469-135.464844-192.800782 8.648438-24.015624 8.648438-50.46875 0-74.484374-26.941406-74.820313 11.878907-157.3125 86.699219-184.25 74.816406-26.941407 157.308594 11.875 184.25 86.695312 31.292969 86.921875 31.292969 182.664062 0 269.589844-21.140625 58.710937-76.484375 95.25-135.484375 95.25zm0 0" fill="#e37858"/><path d="m157.113281.4375c-19.742187-1.546875-40.121093.972656-59.957031 8.117188-6.980469 2.511718-13.644531 5.507812-19.972656 8.933593 8.394531 20.3125 45.730468 114.882813 37.3125 171.398438-9.46875 63.578125-28.886719 136.183593 13.527344 141.722656 58.523437 7.640625 80.433593-232.867187 29.089843-330.171875zm0 0" fill="#b24e2f"/></svg>